<svg xmlns="http://www.w3.org/2000/svg"  viewBox="0 0 512 512" width="64px" height="64px"><path fill="#289bc3" d="M240,20c-5.451,0-26.549,0-32,0c-52.935,0-96,43.065-96,96s43.065,96,96,96c0,0,20.784,0,32,0v-64 c-17.645,0-32-14.355-32-32c0-11.818,6.445-22.153,16-27.694c9.555,5.541,16,15.876,16,27.694h96C336,63.065,292.935,20,240,20z"/><path fill="#00d2d2" d="M112,116c0,52.935,43.065,96,96,96v-64c-17.645,0-32-14.355-32-32s14.355-32,32-32V20 C155.065,20,112,63.065,112,116z"/><path fill="#289bc3" d="M491.195,423.194l-39.918-39.918c-2.098-2.098-4.944-3.276-7.911-3.276h-0.178c-6.179,0-28.855,0-31.822,0 h-0.178c-6.179,0-11.188,5.009-11.188,11.188v89.625c0,6.179,5.009,11.188,11.188,11.188h0c3.072,0,25.821,0,32,0h0 c3.072,0,6.009-1.264,8.122-3.493l40.194-42.428c2.887-3.047,4.496-7.085,4.496-11.283 C496,430.444,494.271,426.271,491.195,423.194z"/><path fill="#00d2d2" d="M459.195,423.194l-39.918-39.918c-2.098-2.098-4.944-3.276-7.911-3.276h-0.178 c-6.179,0-11.188,5.009-11.188,11.188V404H224v64h176v12.813c0,6.179,5.009,11.188,11.188,11.188h0 c3.072,0,6.009-1.264,8.122-3.493l40.194-42.428c2.887-3.047,4.496-7.085,4.496-11.283 C464,430.444,462.271,426.271,459.195,423.194z"/><path fill="#e64178" d="M241.253,148.005c-0.417-0.003-0.832,0.006-1.248,0.006V148H208v0.011C119.776,148.013,48,219.776,48,308 H35.188C29.009,308,24,313.009,24,319.188v0.179c0,2.967,1.179,5.813,3.277,7.91L67,367c1.714,1.714,3.74,3.116,6.014,3.958 c1.908,0.705,3.862,1.041,5.782,1.041V372h32.005v-0.001c4.198,0,8.236-1.608,11.283-4.495l42.427-40.194 c2.374-2.248,3.652-5.432,3.478-8.717C167.67,312.586,162.45,308,156.435,308h-12.43c0-47.458,34.615-86.981,79.923-94.652 c44.093,7.418,78.228,45.151,79.998,90.858C306.043,358.861,262.194,404,208,404H64.005H32c-8.837,0-16,7.163-16,16v32 c0,8.837,7.163,16,16,16h32.005H208h32.005c88.64,0,160.676-72.453,159.995-161.248 C399.333,219.725,328.28,148.672,241.253,148.005z"/><path fill="#ff6e91" d="M209.248,148.005C120.453,147.324,48,219.36,48,308H35.188C29.009,308,24,313.009,24,319.188v0.178 c0,2.967,1.179,5.813,3.277,7.91L67,367c1.714,1.714,3.74,3.117,6.014,3.958c6.078,2.248,12.624,0.754,17.066-3.454l42.427-40.194 c2.374-2.248,3.652-5.431,3.478-8.717C135.665,312.586,130.445,308,124.43,308H112c0-54.194,45.139-98.043,99.794-95.926 c49.824,1.93,90.202,42.308,92.132,92.132C306.043,358.861,262.194,404,208,404H32c-8.837,0-16,7.163-16,16v32 c0,8.837,7.163,16,16,16h176c88.64,0,160.676-72.453,159.995-161.248C367.328,219.725,296.275,148.672,209.248,148.005z"/><path fill="#289bc3" d="M348.812,116H227.188c-6.179,0-11.188,5.009-11.188,11.188v0.179c0,2.967,1.179,5.813,3.277,7.91 l39.918,39.918c3.077,3.077,7.25,4.806,11.601,4.806c4.198,0,27.649,0,32,0c4.198,0,8.236-1.609,11.283-4.496l42.427-40.194 c2.23-2.112,3.493-5.05,3.493-8.122C360,121.009,354.991,116,348.812,116z"/><path fill="#00d2d2" d="M316.812,116H304c0-52.935-43.065-96-96-96v64c17.645,0,32,14.355,32,32h-12.812 c-6.179,0-11.188,5.009-11.188,11.188v0.179c0,2.967,1.179,5.813,3.277,7.91l39.918,39.918c3.077,3.077,7.25,4.806,11.601,4.806 c4.198,0,8.236-1.609,11.283-4.496l42.427-40.194c2.23-2.112,3.493-5.05,3.493-8.122C328,121.009,322.991,116,316.812,116z"/><circle cx="400" cy="244" r="96" fill="#00d2d2"/><path fill="#d7e6f0" d="M461.714,244c0-2.072-0.107-4.118-0.311-6.135c-0.325-3.211,1.287-6.305,4.082-7.919l0.007-0.004 c3.948-2.279,5.3-7.327,3.021-11.274l-12.318-21.336c-2.279-3.947-7.327-5.3-11.274-3.021l-0.013,0.007 c-2.794,1.613-6.279,1.462-8.897-0.423c-3.318-2.39-6.881-4.458-10.647-6.159c-2.932-1.324-4.793-4.267-4.793-7.484v0 c0-4.558-3.695-8.253-8.253-8.253h-24.636c-4.558,0-8.253,3.695-8.253,8.253v0c0,3.217-1.861,6.16-4.793,7.484 c-3.766,1.701-7.329,3.769-10.647,6.159c-2.618,1.885-6.103,2.036-8.897,0.423l-0.013-0.007 c-3.947-2.279-8.995-0.927-11.274,3.021l-12.318,21.336c-2.279,3.947-0.927,8.995,3.021,11.274l0.007,0.004 c2.795,1.614,4.406,4.708,4.082,7.919c-0.204,2.018-0.311,4.064-0.311,6.135s0.107,4.118,0.311,6.135 c0.325,3.211-1.287,6.305-4.082,7.919l-0.007,0.004c-3.948,2.279-5.3,7.327-3.021,11.274l12.318,21.336 c2.279,3.947,7.327,5.3,11.274,3.021l0.013-0.007c2.794-1.613,6.279-1.462,8.897,0.423c3.318,2.39,6.881,4.458,10.647,6.158 c2.932,1.324,4.793,4.267,4.793,7.484v0c0,4.558,3.695,8.253,8.253,8.253h24.636c4.558,0,8.253-3.695,8.253-8.253v0 c0-3.217,1.861-6.16,4.793-7.484c3.766-1.701,7.33-3.769,10.647-6.158c2.618-1.885,6.103-2.036,8.897-0.423l0.013,0.007 c3.947,2.279,8.995,0.927,11.274-3.021l12.318-21.336c2.279-3.947,0.927-8.995-3.021-11.274l-0.007-0.004 c-2.795-1.614-4.406-4.708-4.082-7.919C461.607,248.118,461.714,246.072,461.714,244z"/><circle cx="400" cy="244" r="24" fill="#00d2d2"/></svg>